<svg width="40" height="33" viewBox="0 0 40 33" fill="none" xmlns="http://www.w3.org/2000/svg">
<g id="Vector">
<path d="M18.4447 0.320186C18.4646 8.49733 18.4613 15.5021 18.4348 21.3345C18.4249 23.7876 18.3605 26.7678 17.196 28.684C16.1289 30.441 14.4176 31.5723 12.0621 32.078C11.8242 32.1306 11.7053 32.0354 11.7053 31.7923V0.285705C11.7053 0.259829 11.7104 0.234207 11.7204 0.210301C11.7304 0.186395 11.745 0.164672 11.7634 0.146376C11.7818 0.128079 11.8036 0.113565 11.8277 0.103663C11.8517 0.0937612 11.8775 0.0886642 11.9035 0.0886642H18.2168C18.3688 0.0886642 18.4447 0.165839 18.4447 0.320186Z" fill="#181717"/>
<path d="M31.9039 18.0784L39.9862 31.9943C39.9956 32.0106 40.0003 32.029 40 32.0478C39.9996 32.0666 39.9942 32.0851 39.9842 32.1014C39.9742 32.1178 39.96 32.1315 39.943 32.1412C39.926 32.1509 39.9068 32.1563 39.8871 32.1569H33.0287C32.7446 32.1569 32.5315 32.0354 32.3895 31.7923L24.9513 18.9798C24.7826 18.6927 24.6937 18.368 24.6936 18.039V12.7386C24.6935 12.7084 24.6997 12.6785 24.7119 12.6509C24.7241 12.6232 24.742 12.5983 24.7643 12.5779C24.7867 12.5575 24.8132 12.542 24.842 12.5323C24.8708 12.5227 24.9013 12.5191 24.9315 12.5219C26.5239 12.6664 28.0799 12.5662 29.5996 12.2214C32.0674 11.6647 32.6125 8.65004 30.7591 6.92102C29.5748 5.8176 26.5916 5.92597 24.9959 5.99C24.957 5.99201 24.918 5.98611 24.8814 5.97265C24.8448 5.95919 24.8113 5.93847 24.783 5.91173C24.7547 5.885 24.7322 5.85282 24.7169 5.81716C24.7015 5.78149 24.6936 5.74309 24.6936 5.7043V0.280781C24.6936 0.0935937 24.7878 0 24.9761 0C26.9583 0.00656799 28.6365 0.0985205 30.0109 0.275856C35.5164 0.980273 38.9208 4.68955 38.3906 10.5219C38.0437 14.3642 35.4074 16.4922 32.003 17.7927C31.8576 17.8485 31.8246 17.9437 31.9039 18.0784Z" fill="#606060"/>
<path d="M0.119463 27.5905L4.49019 23.9107C4.62233 23.8024 4.75283 23.804 4.88167 23.9157L7.01748 25.7531C7.05793 25.7887 7.09033 25.8325 7.11254 25.8818C7.13475 25.931 7.14626 25.9845 7.14632 26.0388V31.817C7.14632 31.8473 7.13947 31.8772 7.12627 31.9045C7.11307 31.9318 7.09386 31.9558 7.07007 31.9747C7.04628 31.9936 7.01851 32.007 6.98882 32.0138C6.95913 32.0206 6.92827 32.0206 6.89855 32.014C4.21599 31.3736 1.94638 30.0321 0.0897292 27.9895C-0.0391131 27.8483 -0.0292015 27.7153 0.119463 27.5905Z" fill="#181717"/>
</g>
</svg>
